<mxfile host="app.diagrams.net" modified="2024-05-30T21:48:36.011Z" agent="Mozilla/5.0 (Macintosh; Intel Mac OS X 10_15_7) AppleWebKit/537.36 (KHTML, like Gecko) Chrome/124.0.0.0 Safari/537.36" etag="t_PfPfBoGEiZFsxIXmU4" version="24.4.10" type="github">
  <diagram id="C5RBs43oDa-KdzZeNtuy" name="Page-1">
    <mxGraphModel dx="914" dy="717" grid="1" gridSize="10" guides="1" tooltips="1" connect="1" arrows="1" fold="1" page="1" pageScale="1" pageWidth="827" pageHeight="1169" math="0" shadow="0">
      <root>
        <mxCell id="WIyWlLk6GJQsqaUBKTNV-0" />
        <mxCell id="WIyWlLk6GJQsqaUBKTNV-1" parent="WIyWlLk6GJQsqaUBKTNV-0" />
        <mxCell id="1xjA86fzTjjmSgZk77LD-0" value="" style="rounded=0;html=1;jettySize=auto;orthogonalLoop=1;fontSize=14;endArrow=open;endFill=0;endSize=8;strokeWidth=1;shadow=0;labelBackgroundColor=none;edgeStyle=orthogonalEdgeStyle;entryX=0.5;entryY=0;entryDx=0;entryDy=0;fontFamily=Times New Roman;" edge="1" parent="WIyWlLk6GJQsqaUBKTNV-1" source="1xjA86fzTjjmSgZk77LD-1" target="1xjA86fzTjjmSgZk77LD-3">
          <mxGeometry relative="1" as="geometry">
            <mxPoint x="230" y="250" as="targetPoint" />
          </mxGeometry>
        </mxCell>
        <mxCell id="1xjA86fzTjjmSgZk77LD-1" value="Начало" style="rounded=1;whiteSpace=wrap;html=1;fontSize=14;glass=0;strokeWidth=1;shadow=0;arcSize=50;fontFamily=Times New Roman;" vertex="1" parent="WIyWlLk6GJQsqaUBKTNV-1">
          <mxGeometry x="170" y="160" width="120" height="40" as="geometry" />
        </mxCell>
        <mxCell id="1xjA86fzTjjmSgZk77LD-2" style="edgeStyle=orthogonalEdgeStyle;rounded=0;orthogonalLoop=1;jettySize=auto;html=1;entryX=0.5;entryY=0;entryDx=0;entryDy=0;" edge="1" parent="WIyWlLk6GJQsqaUBKTNV-1" source="1xjA86fzTjjmSgZk77LD-3" target="1xjA86fzTjjmSgZk77LD-20">
          <mxGeometry relative="1" as="geometry" />
        </mxCell>
        <mxCell id="1xjA86fzTjjmSgZk77LD-3" value="Загрузка&amp;nbsp;&lt;div style=&quot;font-size: 14px;&quot;&gt;матрицы&amp;nbsp;&lt;/div&gt;&lt;div style=&quot;font-size: 14px;&quot;&gt;изображения&lt;/div&gt;" style="shape=parallelogram;perimeter=parallelogramPerimeter;whiteSpace=wrap;html=1;fixedSize=1;fontFamily=Times New Roman;fontSize=14;" vertex="1" parent="WIyWlLk6GJQsqaUBKTNV-1">
          <mxGeometry x="170" y="230" width="120" height="60" as="geometry" />
        </mxCell>
        <mxCell id="1xjA86fzTjjmSgZk77LD-4" value="" style="edgeStyle=orthogonalEdgeStyle;rounded=0;orthogonalLoop=1;jettySize=auto;html=1;endArrow=open;endFill=0;" edge="1" parent="WIyWlLk6GJQsqaUBKTNV-1" source="1xjA86fzTjjmSgZk77LD-5" target="1xjA86fzTjjmSgZk77LD-7">
          <mxGeometry relative="1" as="geometry" />
        </mxCell>
        <mxCell id="1xjA86fzTjjmSgZk77LD-5" value="Нахождение минимальной&amp;nbsp;&lt;div&gt;и максимальной яркости изображения&lt;/div&gt;" style="rounded=0;whiteSpace=wrap;html=1;fontFamily=Times New Roman;fontSize=14;" vertex="1" parent="WIyWlLk6GJQsqaUBKTNV-1">
          <mxGeometry x="140" y="410" width="180" height="60" as="geometry" />
        </mxCell>
        <mxCell id="1xjA86fzTjjmSgZk77LD-6" value="" style="edgeStyle=orthogonalEdgeStyle;rounded=0;orthogonalLoop=1;jettySize=auto;html=1;" edge="1" parent="WIyWlLk6GJQsqaUBKTNV-1" source="1xjA86fzTjjmSgZk77LD-7" target="1xjA86fzTjjmSgZk77LD-10">
          <mxGeometry relative="1" as="geometry">
            <Array as="points">
              <mxPoint x="230" y="640" />
              <mxPoint x="420" y="640" />
              <mxPoint x="420" y="130" />
              <mxPoint x="619" y="130" />
            </Array>
          </mxGeometry>
        </mxCell>
        <mxCell id="1xjA86fzTjjmSgZk77LD-7" value="Поставить указатель на начальный пикслель" style="whiteSpace=wrap;html=1;fontSize=14;fontFamily=Times New Roman;rounded=0;" vertex="1" parent="WIyWlLk6GJQsqaUBKTNV-1">
          <mxGeometry x="160" y="500" width="140" height="60" as="geometry" />
        </mxCell>
        <mxCell id="1xjA86fzTjjmSgZk77LD-8" value="Конец" style="rounded=1;whiteSpace=wrap;html=1;arcSize=50;fontFamily=Times New Roman;fontSize=14;" vertex="1" parent="WIyWlLk6GJQsqaUBKTNV-1">
          <mxGeometry x="564" y="710" width="120" height="60" as="geometry" />
        </mxCell>
        <mxCell id="1xjA86fzTjjmSgZk77LD-9" style="edgeStyle=orthogonalEdgeStyle;rounded=0;orthogonalLoop=1;jettySize=auto;html=1;entryX=0.5;entryY=0;entryDx=0;entryDy=0;" edge="1" parent="WIyWlLk6GJQsqaUBKTNV-1" source="1xjA86fzTjjmSgZk77LD-10" target="1xjA86fzTjjmSgZk77LD-17">
          <mxGeometry relative="1" as="geometry" />
        </mxCell>
        <mxCell id="1xjA86fzTjjmSgZk77LD-10" value="Рассчет нового значения яркости пикселя" style="whiteSpace=wrap;html=1;fontSize=14;fontFamily=Times New Roman;rounded=0;" vertex="1" parent="WIyWlLk6GJQsqaUBKTNV-1">
          <mxGeometry x="529" y="210" width="180" height="60" as="geometry" />
        </mxCell>
        <mxCell id="1xjA86fzTjjmSgZk77LD-11" style="edgeStyle=orthogonalEdgeStyle;rounded=0;orthogonalLoop=1;jettySize=auto;html=1;exitX=0;exitY=0.5;exitDx=0;exitDy=0;" edge="1" parent="WIyWlLk6GJQsqaUBKTNV-1" source="1xjA86fzTjjmSgZk77LD-13">
          <mxGeometry relative="1" as="geometry">
            <mxPoint x="619" y="180" as="targetPoint" />
            <Array as="points">
              <mxPoint x="470" y="540" />
              <mxPoint x="470" y="180" />
            </Array>
          </mxGeometry>
        </mxCell>
        <mxCell id="1xjA86fzTjjmSgZk77LD-12" value="" style="edgeStyle=orthogonalEdgeStyle;rounded=0;orthogonalLoop=1;jettySize=auto;html=1;" edge="1" parent="WIyWlLk6GJQsqaUBKTNV-1" source="1xjA86fzTjjmSgZk77LD-13" target="1xjA86fzTjjmSgZk77LD-22">
          <mxGeometry relative="1" as="geometry" />
        </mxCell>
        <mxCell id="1xjA86fzTjjmSgZk77LD-13" value="Обработаны&amp;nbsp;&lt;div&gt;все пиксели?&lt;/div&gt;" style="rhombus;whiteSpace=wrap;html=1;fontSize=14;fontFamily=Times New Roman;rounded=0;" vertex="1" parent="WIyWlLk6GJQsqaUBKTNV-1">
          <mxGeometry x="544" y="500" width="160" height="80" as="geometry" />
        </mxCell>
        <mxCell id="1xjA86fzTjjmSgZk77LD-14" style="edgeStyle=orthogonalEdgeStyle;rounded=0;orthogonalLoop=1;jettySize=auto;html=1;entryX=0.5;entryY=0;entryDx=0;entryDy=0;" edge="1" parent="WIyWlLk6GJQsqaUBKTNV-1" source="1xjA86fzTjjmSgZk77LD-15" target="1xjA86fzTjjmSgZk77LD-13">
          <mxGeometry relative="1" as="geometry" />
        </mxCell>
        <mxCell id="1xjA86fzTjjmSgZk77LD-15" value="Сдвиг указателя&amp;nbsp;&lt;div&gt;на одну позицию&lt;/div&gt;" style="rounded=0;whiteSpace=wrap;html=1;" vertex="1" parent="WIyWlLk6GJQsqaUBKTNV-1">
          <mxGeometry x="559" y="400" width="130" height="60" as="geometry" />
        </mxCell>
        <mxCell id="1xjA86fzTjjmSgZk77LD-16" value="Нет" style="text;html=1;align=center;verticalAlign=middle;resizable=0;points=[];autosize=1;strokeColor=none;fillColor=none;" vertex="1" parent="WIyWlLk6GJQsqaUBKTNV-1">
          <mxGeometry x="509" y="510" width="40" height="30" as="geometry" />
        </mxCell>
        <mxCell id="1xjA86fzTjjmSgZk77LD-17" value="Добавление нового значения в матрицу результата" style="rounded=0;whiteSpace=wrap;html=1;" vertex="1" parent="WIyWlLk6GJQsqaUBKTNV-1">
          <mxGeometry x="560" y="300" width="120" height="60" as="geometry" />
        </mxCell>
        <mxCell id="1xjA86fzTjjmSgZk77LD-18" style="edgeStyle=orthogonalEdgeStyle;rounded=0;orthogonalLoop=1;jettySize=auto;html=1;entryX=0.474;entryY=-0.003;entryDx=0;entryDy=0;entryPerimeter=0;" edge="1" parent="WIyWlLk6GJQsqaUBKTNV-1" source="1xjA86fzTjjmSgZk77LD-17" target="1xjA86fzTjjmSgZk77LD-15">
          <mxGeometry relative="1" as="geometry" />
        </mxCell>
        <mxCell id="1xjA86fzTjjmSgZk77LD-19" style="edgeStyle=orthogonalEdgeStyle;rounded=0;orthogonalLoop=1;jettySize=auto;html=1;entryX=0.5;entryY=0;entryDx=0;entryDy=0;" edge="1" parent="WIyWlLk6GJQsqaUBKTNV-1" source="1xjA86fzTjjmSgZk77LD-20" target="1xjA86fzTjjmSgZk77LD-5">
          <mxGeometry relative="1" as="geometry" />
        </mxCell>
        <mxCell id="1xjA86fzTjjmSgZk77LD-20" value="Конвертация изображения в черно-белое" style="rounded=0;whiteSpace=wrap;html=1;" vertex="1" parent="WIyWlLk6GJQsqaUBKTNV-1">
          <mxGeometry x="170" y="320" width="120" height="60" as="geometry" />
        </mxCell>
        <mxCell id="1xjA86fzTjjmSgZk77LD-21" style="edgeStyle=orthogonalEdgeStyle;rounded=0;orthogonalLoop=1;jettySize=auto;html=1;entryX=0.5;entryY=0;entryDx=0;entryDy=0;" edge="1" parent="WIyWlLk6GJQsqaUBKTNV-1" source="1xjA86fzTjjmSgZk77LD-22" target="1xjA86fzTjjmSgZk77LD-8">
          <mxGeometry relative="1" as="geometry" />
        </mxCell>
        <mxCell id="1xjA86fzTjjmSgZk77LD-22" value="Запись результирующей матрицы в изображение" style="whiteSpace=wrap;html=1;fontSize=14;fontFamily=Times New Roman;rounded=0;" vertex="1" parent="WIyWlLk6GJQsqaUBKTNV-1">
          <mxGeometry x="549" y="610" width="150" height="60" as="geometry" />
        </mxCell>
        <mxCell id="1xjA86fzTjjmSgZk77LD-23" value="Да" style="text;html=1;align=center;verticalAlign=middle;resizable=0;points=[];autosize=1;strokeColor=none;fillColor=none;" vertex="1" parent="WIyWlLk6GJQsqaUBKTNV-1">
          <mxGeometry x="574" y="570" width="40" height="30" as="geometry" />
        </mxCell>
      </root>
    </mxGraphModel>
  </diagram>
</mxfile>
